<svg width="1378" height="329" viewBox="0 0 1378 329" fill="none" xmlns="http://www.w3.org/2000/svg">
<path d="M7.04 138.416C5.248 138.416 4.352 137.605 4.352 135.984C4.43733 135.131 5.46133 134.107 7.424 132.912L8.96 131.76C12.7147 128.091 14.592 121.563 14.592 112.176C14.592 106.373 14.3787 100.059 13.952 93.232C13.5253 84.1013 13.312 78.3413 13.312 75.952L12.544 56.112C12.1173 44.848 11.904 37.1253 11.904 32.944C10.5387 32.944 9.25867 32.9867 8.064 33.072L4.224 33.2C3.712 33.2 3.28533 33.0293 2.944 32.688C2.688 32.2613 2.56 31.792 2.56 31.28C2.56 30.256 2.90133 29.616 3.584 29.36C4.26667 29.0187 5.888 28.848 8.448 28.848L13.312 28.976H20.096C20.6933 28.976 21.1627 29.1893 21.504 29.616C21.9307 30.0427 22.144 30.512 22.144 31.024C22.144 31.792 21.888 32.304 21.376 32.56C20.9493 32.816 20.0533 32.944 18.688 32.944H15.872C15.872 44.464 16.3413 58.8427 17.28 76.08C17.4507 78.384 17.6213 82.3093 17.792 87.856C18.3893 98.5227 18.688 104.88 18.688 106.928C18.688 110.512 18.6027 113.328 18.432 115.376C18.3467 117.424 18.0907 119.643 17.664 122.032C17.2373 124.507 16.5973 126.597 15.744 128.304C14.976 130.096 13.8667 131.845 12.416 133.552C10.9653 135.429 9.17333 137.051 7.04 138.416ZM76.982 127.152C75.702 127.152 74.8913 126.981 74.55 126.64C74.2087 126.384 73.9527 125.616 73.782 124.336C73.014 118.107 72.5447 114.224 72.374 112.688L71.734 107.568C69.8567 107.141 67.7233 106.928 65.334 106.928L60.726 106.672C58.678 106.416 57.1847 106.288 56.246 106.288C55.734 106.288 55.4353 106.501 55.35 106.928C55.35 107.184 55.3073 107.312 55.222 107.312L54.966 109.872C54.8807 111.408 54.4113 114.48 53.558 119.088C53.1313 121.392 52.6193 123.184 52.022 124.464C51.3393 125.915 50.6993 126.64 50.102 126.64C49.59 126.64 49.0353 126.427 48.438 126C47.8407 125.488 47.542 124.976 47.542 124.464L47.67 124.08L47.798 123.696C49.334 117.637 50.614 111.621 51.638 105.648L53.174 97.712L54.71 87.984C54.71 87.984 55.1793 85.168 56.118 79.536C56.5447 77.232 57.3127 73.52 58.422 68.4C59.6167 62.5973 60.342 58.6293 60.598 56.496C60.6833 56.24 60.854 54.6613 61.11 51.76C61.4513 48.5173 61.75 46.128 62.006 44.592C62.262 42.3733 62.518 41.0933 62.774 40.752H63.67C63.926 40.8373 64.2247 40.88 64.566 40.88C65.59 40.88 66.358 40.624 66.87 40.112C67.4673 40.112 67.9793 40.3253 68.406 40.752C68.918 41.0933 69.174 41.52 69.174 42.032C69.174 46.128 69.4727 50.8213 70.07 56.112C70.4113 58.8427 70.6673 61.104 70.838 62.896C71.7767 73.904 74.166 94.5547 78.006 124.848V125.232C78.006 126.085 77.6647 126.725 76.982 127.152ZM71.094 104.112C70.2407 91.824 68.6193 73.6907 66.23 49.712L59.318 83.888C57.3553 93.7013 56.374 99.888 56.374 102.448C56.374 102.875 57.9953 103.259 61.238 103.6C64.4807 103.941 67.3393 104.112 69.814 104.112H71.094ZM155.251 132.656C153.544 132.656 152.691 129.925 152.691 124.464V116.016C152.691 103.728 152.435 94.128 151.923 87.216L151.539 82.48C151.198 80.3467 151.027 78.4693 151.027 76.848C151.027 73.9467 151.112 71.3013 151.283 68.912L151.539 60.976C151.539 58.3307 151.368 56.3253 151.027 54.96C149.32 56.1547 144.158 74.1173 135.539 108.848L135.411 110.768C135.155 112.901 134.814 114.608 134.387 115.888C134.131 116.827 133.747 117.552 133.235 118.064C132.808 118.576 132.296 118.832 131.699 118.832C130.334 118.832 129.352 118.491 128.755 117.808C128.158 117.125 127.859 116.059 127.859 114.608C127.859 112.304 126.75 106.331 124.531 96.688C122.398 87.0453 120.051 77.7867 117.491 68.912C115.016 60.0373 113.31 55.1307 112.371 54.192C112.286 57.1787 111.944 64.2187 111.347 75.312C110.152 94.9387 109.555 110.384 109.555 121.648L109.683 126.768C109.342 127.877 108.446 128.432 106.995 128.432C106.739 128.432 106.312 128.176 105.715 127.664C105.118 127.237 104.819 126.896 104.819 126.64C104.819 118.96 105.502 105.477 106.867 86.192C108.147 68.272 108.787 54.832 108.787 45.872C108.787 45.4453 108.702 45.0187 108.531 44.592C108.275 44.08 108.147 43.696 108.147 43.44C108.147 42.16 109.256 41.52 111.475 41.52C112.926 41.52 113.779 42.16 114.035 43.44C114.376 45.1467 114.547 46.4267 114.547 47.28L114.675 48.816C115.102 51.0347 116.339 54.448 118.387 59.056C120.008 62.7253 121.246 65.9253 122.099 68.656C122.611 70.704 123.08 72.368 123.507 73.648C124.872 78.5973 125.768 82.2667 126.195 84.656L127.859 87.984C128.115 89.264 128.627 91.3547 129.395 94.256C130.163 97.4987 130.718 100.144 131.059 102.192C131.4 104.24 131.571 106.203 131.571 108.08C132.51 106.629 135.155 97.9253 139.507 81.968C143.944 65.9253 146.547 55.6853 147.315 51.248C147.4 51.0773 147.443 50.864 147.443 50.608C147.528 50.2667 147.614 49.84 147.699 49.328C147.87 48.2187 148.254 46.5547 148.851 44.336C149.534 42.6293 150.558 41.776 151.923 41.776C152.52 41.776 153.203 42.032 153.971 42.544C154.739 43.056 155.123 43.568 155.123 44.08C155.123 79.664 155.678 98.48 156.787 100.528V107.184C156.702 109.147 156.659 111.408 156.659 113.968C156.659 119.429 156.958 123.525 157.555 126.256C157.64 126.341 157.683 126.469 157.683 126.64C157.768 126.811 157.854 127.024 157.939 127.28C158.024 127.621 158.067 128.005 158.067 128.432C158.067 129.371 157.768 130.309 157.171 131.248C156.659 132.187 156.019 132.656 155.251 132.656ZM151.027 54.192H150.899L150.643 54.32L151.027 54.448V54.192ZM197.028 126C195.065 126 193.913 125.573 193.572 124.72C193.145 124.72 192.804 124.763 192.548 124.848H191.524C189.647 124.848 188.452 124.421 187.94 123.568C187.94 122.971 188.281 122.459 188.964 122.032L189.604 121.392H193.316L193.828 120.88L194.084 119.728L194.212 118.192C194.212 112.987 194.084 108.336 193.828 104.24L193.572 99.504L193.316 90.16C193.316 86.832 193.444 81.84 193.7 75.184L193.956 60.336C193.956 53.8507 193.743 48.9013 193.316 45.488C192.548 45.232 191.268 45.104 189.476 45.104L188.068 45.232C187.556 45.3173 187.001 45.36 186.404 45.36C184.783 45.36 183.972 44.6347 183.972 43.184C183.972 42.8427 184.356 42.5013 185.124 42.16C185.892 41.8187 186.532 41.648 187.044 41.648C190.287 41.648 193.529 41.8187 196.772 42.16C198.735 42.2453 200.697 42.6293 202.66 43.312C204.196 43.824 204.964 44.5493 204.964 45.488C204.964 45.6587 204.836 46 204.58 46.512L201.636 46.768C201.039 46.256 199.801 46 197.924 46L197.284 46.384C197.54 47.152 197.668 49.4133 197.668 53.168C197.668 58.8 197.625 63.8773 197.54 68.4L197.284 83.632C197.284 87.472 197.455 92.1227 197.796 97.584C198.052 103.813 198.18 108.507 198.18 111.664V113.328C198.095 113.925 198.052 114.693 198.052 115.632C198.052 117.595 198.18 118.789 198.436 119.216L198.308 119.472C198.308 120.325 199.247 120.752 201.124 120.752C201.892 120.752 202.532 120.709 203.044 120.624H204.964C207.439 120.624 208.676 121.221 208.676 122.416C208.676 123.184 208.42 123.824 207.908 124.336C207.396 124.763 206.713 124.976 205.86 124.976C205.092 124.976 204.409 124.891 203.812 124.72C203.129 124.635 202.404 124.592 201.636 124.592C201.124 124.592 200.356 124.805 199.332 125.232C198.308 125.744 197.54 126 197.028 126ZM235.723 127.664C234.187 127.664 233.334 126.768 233.163 124.976V123.312C233.248 122.885 233.291 122.373 233.291 121.776L232.779 121.264C233.462 119.472 233.803 117.723 233.803 116.016C233.803 114.053 233.675 111.237 233.419 107.568L233.163 99.12C233.163 94.8533 233.291 88.4533 233.547 79.92C233.888 72.3253 234.059 65.8827 234.059 60.592L233.803 52.912C233.632 50.608 233.547 48.048 233.547 45.232C233.547 43.952 233.846 43.056 234.443 42.544C235.04 41.9467 235.979 41.648 237.259 41.648C238.112 41.648 238.795 41.904 239.307 42.416C239.478 42.5013 240.715 42.672 243.019 42.928C245.152 43.184 246.987 43.568 248.523 44.08C250.144 44.592 250.955 45.232 250.955 46C250.955 46.8533 250.144 47.7067 248.523 48.56C243.659 46.9387 240.203 46.128 238.155 46.128L237.515 46.896C237.6 47.664 237.643 49.4987 237.643 52.4C237.643 56.0693 237.558 59.3547 237.387 62.256C237.302 65.2427 237.259 68.5707 237.259 72.24C237.259 74.6293 237.856 75.824 239.051 75.824L241.099 75.696C241.782 75.6107 242.507 75.568 243.275 75.568C246.603 75.568 248.267 76.336 248.267 77.872C248.267 78.8107 248.054 79.6213 247.627 80.304C247.2 80.9013 246.56 81.2 245.707 81.2C244.427 81.2 243.446 80.8587 242.763 80.176L238.667 79.536H238.027L237.387 80.176V80.56C237.558 82.0107 237.643 85.3813 237.643 90.672C237.643 94 237.6 97.0293 237.515 99.76L237.387 108.848C237.387 112.176 237.515 115.589 237.771 119.088C237.856 121.051 238.283 122.373 239.051 123.056C239.819 123.653 241.227 123.952 243.275 123.952L245.579 123.824C246.347 123.739 247.2 123.696 248.139 123.696C250.614 123.696 251.851 124.251 251.851 125.36C251.851 126.896 249.974 127.664 246.219 127.664H235.723ZM337.439 126.768C336.415 126.768 335.903 125.275 335.903 122.288C335.903 118.021 335.86 114.224 335.775 110.896L335.519 99.376V89.008C335.434 85.936 335.391 82.48 335.391 78.64C335.391 67.2053 335.178 56.624 334.751 46.896L334.623 42.288C334.367 37.2533 334.239 33.1573 334.239 30L334.623 29.488C334.708 29.3173 334.879 29.104 335.135 28.848C335.22 28.592 335.434 28.4213 335.775 28.336C335.946 28.2507 336.244 28.208 336.671 28.208C339.658 28.208 342.346 28.8907 344.735 30.256C347.21 31.6213 349.215 33.4987 350.751 35.888C353.738 40.5813 355.231 45.9147 355.231 51.888C355.231 55.728 354.591 59.6533 353.311 63.664C352.116 67.6747 350.282 71.3013 347.807 74.544C345.247 78.0427 342.388 80.0907 339.231 80.688L339.487 94.896L339.743 101.808C340.084 110 340.255 116.997 340.255 122.8C340.255 124.165 340.042 125.189 339.615 125.872C339.274 126.469 338.548 126.768 337.439 126.768ZM339.231 75.952C339.999 75.8667 340.767 75.5253 341.535 74.928C341.706 74.8427 342.004 74.5013 342.431 73.904C342.431 73.904 342.73 73.6053 343.327 73.008C348.874 67.4613 351.647 60.5067 351.647 52.144C351.647 47.3653 350.708 42.928 348.831 38.832C347.807 36.6987 346.314 35.0347 344.351 33.84C342.388 32.56 340.084 31.92 337.439 31.92C337.439 36.784 337.695 44.08 338.207 53.808C338.719 63.536 338.975 70.832 338.975 75.696L339.231 75.952ZM385.87 127.664C384.675 127.664 383.95 126.683 383.694 124.72C383.865 124.208 383.95 122.8 383.95 120.496C383.95 112.645 384.078 100.997 384.334 85.552C384.59 70.192 384.718 59.0987 384.718 52.272L384.974 47.664L385.358 43.824C385.358 43.2267 385.657 42.928 386.254 42.928C386.681 42.928 387.278 43.056 388.046 43.312L388.43 43.44C388.43 45.3173 388.387 47.024 388.302 48.56V53.552V67.504C388.387 71.6 388.43 76.2507 388.43 81.456C388.345 81.8827 388.302 82.8213 388.302 84.272L388.174 86.96C388.089 88.6667 388.046 90.416 388.046 92.208C388.046 94.1707 388.089 95.9627 388.174 97.584L388.302 103.088L387.918 104.112L388.046 103.984C388.046 104.24 388.003 104.411 387.918 104.496V105.008C387.918 105.691 388.046 106.288 388.302 106.8L387.918 119.088V119.856C387.918 121.307 387.961 122.16 388.046 122.416C388.046 122.843 388.259 123.056 388.686 123.056L395.342 123.312C397.305 123.312 398.627 123.355 399.31 123.44C400.078 123.44 400.547 123.44 400.718 123.44H401.102C401.529 123.44 401.955 123.696 402.382 124.208C402.809 124.635 403.022 125.104 403.022 125.616C403.022 126.64 402.339 127.195 400.974 127.28C399.523 127.195 395.982 127.152 390.35 127.152L390.606 127.28C389.753 127.28 388.942 127.323 388.174 127.408C387.491 127.579 386.723 127.664 385.87 127.664ZM453.457 127.152C452.177 127.152 451.366 126.981 451.025 126.64C450.684 126.384 450.428 125.616 450.257 124.336C449.489 118.107 449.02 114.224 448.849 112.688L448.209 107.568C446.332 107.141 444.198 106.928 441.809 106.928L437.201 106.672C435.153 106.416 433.66 106.288 432.721 106.288C432.209 106.288 431.91 106.501 431.825 106.928C431.825 107.184 431.782 107.312 431.697 107.312L431.441 109.872C431.356 111.408 430.886 114.48 430.033 119.088C429.606 121.392 429.094 123.184 428.497 124.464C427.814 125.915 427.174 126.64 426.577 126.64C426.065 126.64 425.51 126.427 424.913 126C424.316 125.488 424.017 124.976 424.017 124.464L424.145 124.08L424.273 123.696C425.809 117.637 427.089 111.621 428.113 105.648L429.649 97.712L431.185 87.984C431.185 87.984 431.654 85.168 432.593 79.536C433.02 77.232 433.788 73.52 434.897 68.4C436.092 62.5973 436.817 58.6293 437.073 56.496C437.158 56.24 437.329 54.6613 437.585 51.76C437.926 48.5173 438.225 46.128 438.481 44.592C438.737 42.3733 438.993 41.0933 439.249 40.752H440.145C440.401 40.8373 440.7 40.88 441.041 40.88C442.065 40.88 442.833 40.624 443.345 40.112C443.942 40.112 444.454 40.3253 444.881 40.752C445.393 41.0933 445.649 41.52 445.649 42.032C445.649 46.128 445.948 50.8213 446.545 56.112C446.886 58.8427 447.142 61.104 447.313 62.896C448.252 73.904 450.641 94.5547 454.481 124.848V125.232C454.481 126.085 454.14 126.725 453.457 127.152ZM447.569 104.112C446.716 91.824 445.094 73.6907 442.705 49.712L435.793 83.888C433.83 93.7013 432.849 99.888 432.849 102.448C432.849 102.875 434.47 103.259 437.713 103.6C440.956 103.941 443.814 104.112 446.289 104.112H447.569ZM489.614 127.92C489.358 127.92 489.017 127.749 488.59 127.408C488.163 127.067 487.907 126.768 487.822 126.512C488.59 124.464 488.974 116.997 488.974 104.112C488.974 101.637 488.846 98.096 488.59 93.488L487.95 84.4L487.182 82.736L487.566 81.2C487.054 80.0053 486.286 78 485.262 75.184C484.238 72.368 483.214 69.5093 482.19 66.608C479.118 58.5013 477.113 52.656 476.174 49.072C475.662 47.3653 475.278 45.7867 475.022 44.336L476.814 42.928C477.667 43.0987 478.905 45.8293 480.526 51.12C481.806 54.8747 482.958 58.5867 483.982 62.256L485.518 67.12C487.054 72.4107 488.163 75.1413 488.846 75.312L489.358 73.008L489.102 72.368C489.785 71.5147 490.638 68.4853 491.662 63.28C492.771 57.3067 493.838 52.272 494.862 48.176C495.971 43.3973 497.081 41.008 498.19 41.008C498.617 41.008 499.001 41.136 499.342 41.392C499.683 41.648 499.854 41.9467 499.854 42.288C499.854 43.568 498.574 48.6027 496.014 57.392C494.734 61.5733 493.667 65.4987 492.814 69.168C491.79 73.52 491.278 77.4027 491.278 80.816C491.705 81.6693 491.918 82.3947 491.918 82.992C491.918 83.4187 491.79 84.016 491.534 84.784C491.278 85.552 491.15 86.192 491.15 86.704C491.15 87.1307 491.321 89.0507 491.662 92.464C492.003 94.768 492.174 96.7307 492.174 98.352C492.174 102.107 492.217 105.477 492.302 108.464V118.704V119.216C492.302 125.019 491.406 127.92 489.614 127.92ZM529.499 127.536C528.56 127.365 527.664 126.981 526.811 126.384C525.958 125.872 525.488 125.232 525.403 124.464L526.043 123.44C526.384 123.44 527.152 123.568 528.347 123.824C529.286 124.165 530.054 124.336 530.651 124.336C532.528 124.336 534.192 123.611 535.643 122.16C537.094 120.624 538.203 118.661 538.971 116.272C540.166 111.835 540.763 107.653 540.763 103.728C540.763 97.84 538.971 91.5253 535.387 84.784C533.168 80.8587 531.462 77.744 530.267 75.44C529.072 73.136 528.006 70.4907 527.067 67.504C525.958 64.0053 525.403 60.6347 525.403 57.392C525.403 54.32 526.171 50.6933 527.707 46.512C528.475 44.5493 529.542 42.9707 530.907 41.776C532.358 40.496 533.894 39.856 535.515 39.856C536.624 39.856 537.691 40.24 538.715 41.008C539.824 41.776 540.379 42.5867 540.379 43.44C540.379 44.1227 539.824 44.464 538.715 44.464C538.374 44.464 537.947 44.336 537.435 44.08C536.923 43.824 536.454 43.696 536.027 43.696C534.747 43.696 533.595 44.208 532.571 45.232C531.547 46.256 530.779 47.5787 530.267 49.2C529.243 52.3573 528.731 55.2587 528.731 57.904C528.731 59.5253 528.944 61.1893 529.371 62.896C529.456 63.408 529.542 63.8347 529.627 64.176C529.712 64.5173 529.755 64.7733 529.755 64.944L530.523 67.504L531.163 69.808L532.187 72.112C532.443 72.7093 532.699 73.264 532.955 73.776C533.296 74.2027 533.595 74.6293 533.851 75.056L535.387 77.744C535.728 78.256 536.454 79.4933 537.563 81.456C538.672 83.3333 539.696 85.3387 540.635 87.472C541.488 89.264 542.128 90.9707 542.555 92.592C542.982 94.128 543.366 96.0053 543.707 98.224C543.963 100.357 544.091 102.704 544.091 105.264C544.091 109.36 543.536 113.2 542.427 116.784C540.891 121.051 538.672 124.037 535.771 125.744C534.15 126.768 532.272 127.28 530.139 127.28L529.499 127.536ZM539.739 44.08C539.739 43.9947 539.696 43.952 539.611 43.952V44.08H539.739ZM633.933 126.256C632.568 126.256 631.885 125.147 631.885 122.928V113.456L631.501 105.648C630.733 91.6533 630.349 81.3707 630.349 74.8C630.349 71.216 629.88 60.0373 628.941 41.264C628.77 37.168 628.642 34.5653 628.557 33.456C628.472 32.2613 628.429 31.6213 628.429 31.536V30.64C628.429 30.0427 628.856 29.6587 629.709 29.488C630.221 29.3173 631.714 29.232 634.189 29.232H637.005H640.589C641.272 29.232 641.784 29.5307 642.125 30.128C642.466 30.64 642.637 31.3227 642.637 32.176C642.637 33.0293 641.869 33.456 640.333 33.456L637.389 33.328H634.061C633.378 33.328 632.952 33.456 632.781 33.712C632.61 33.968 632.525 34.6507 632.525 35.76C632.525 37.4667 632.824 43.696 633.421 54.448C634.018 65.2 634.317 71.472 634.317 73.264C635.341 73.264 636.792 73.008 638.669 72.496C640.632 71.984 642.082 71.728 643.021 71.728C643.533 71.728 643.96 72.0267 644.301 72.624C644.728 73.2213 644.941 73.776 644.941 74.288C644.941 75.2267 644.258 75.8667 642.893 76.208C641.528 76.464 639.565 76.6773 637.005 76.848C635.213 77.104 634.317 77.616 634.317 78.384C634.317 82.224 634.744 89.392 635.597 99.888C636.365 109.445 636.749 116.656 636.749 121.52L636.365 122.16C636.621 122.757 636.749 123.312 636.749 123.824C636.749 125.445 635.81 126.256 633.933 126.256ZM694.075 127.536C693.051 126.427 691.942 123.483 690.747 118.704C689.552 113.925 688.443 108.549 687.419 102.576C686.736 97.712 685.755 92.8907 684.475 88.112C683.451 83.8453 682.47 81.712 681.531 81.712H681.147C679.27 81.712 678.331 82.3093 678.331 83.504C678.331 89.648 678.672 98.992 679.355 111.536C679.696 119.216 680.08 123.696 680.507 124.976L679.483 127.152H677.691L676.667 126.128C675.302 86.704 674.619 59.824 674.619 45.488C674.619 44.5493 674.662 43.7813 674.747 43.184C674.918 42.5867 675.216 42.032 675.643 41.52C675.984 40.9227 676.582 40.624 677.435 40.624C681.787 40.624 685.286 41.6907 687.931 43.824C690.576 45.9573 691.899 49.0293 691.899 53.04V62.384C691.899 64.0053 691.344 66.1813 690.235 68.912C689.211 71.6427 688.059 74.16 686.779 76.464L685.115 79.664C686.054 84.016 687.888 91.8667 690.619 103.216C693.435 114.48 694.971 120.453 695.227 121.136C695.312 121.221 695.398 121.435 695.483 121.776C695.654 122.117 695.952 122.629 696.379 123.312C696.976 124.507 697.275 125.531 697.275 126.384C697.275 127.579 696.806 128.176 695.867 128.176L694.075 127.536ZM678.971 78.512C680.592 78.512 682.043 77.7013 683.323 76.08C684.603 74.4587 685.627 72.368 686.395 69.808C687.76 64.6027 688.443 60.464 688.443 57.392C688.443 55.4293 688.315 53.808 688.059 52.528C687.888 51.248 687.547 49.8827 687.035 48.432C686.011 45.4453 683.579 43.952 679.739 43.952C679.312 43.952 678.971 44.336 678.715 45.104C678.459 45.7867 678.331 46.512 678.331 47.28C678.331 52.9973 678.416 58.16 678.587 62.768C678.672 67.376 678.715 72.5387 678.715 78.256L678.971 78.512ZM731.328 126C729.365 126 728.213 125.573 727.872 124.72C727.445 124.72 727.104 124.763 726.848 124.848H725.824C723.947 124.848 722.752 124.421 722.24 123.568C722.24 122.971 722.581 122.459 723.264 122.032L723.904 121.392H727.616L728.128 120.88L728.384 119.728L728.512 118.192C728.512 112.987 728.384 108.336 728.128 104.24L727.872 99.504L727.616 90.16C727.616 86.832 727.744 81.84 728 75.184L728.256 60.336C728.256 53.8507 728.043 48.9013 727.616 45.488C726.848 45.232 725.568 45.104 723.776 45.104L722.368 45.232C721.856 45.3173 721.301 45.36 720.704 45.36C719.083 45.36 718.272 44.6347 718.272 43.184C718.272 42.8427 718.656 42.5013 719.424 42.16C720.192 41.8187 720.832 41.648 721.344 41.648C724.587 41.648 727.829 41.8187 731.072 42.16C733.035 42.2453 734.997 42.6293 736.96 43.312C738.496 43.824 739.264 44.5493 739.264 45.488C739.264 45.6587 739.136 46 738.88 46.512L735.936 46.768C735.339 46.256 734.101 46 732.224 46L731.584 46.384C731.84 47.152 731.968 49.4133 731.968 53.168C731.968 58.8 731.925 63.8773 731.84 68.4L731.584 83.632C731.584 87.472 731.755 92.1227 732.096 97.584C732.352 103.813 732.48 108.507 732.48 111.664V113.328C732.395 113.925 732.352 114.693 732.352 115.632C732.352 117.595 732.48 118.789 732.736 119.216L732.608 119.472C732.608 120.325 733.547 120.752 735.424 120.752C736.192 120.752 736.832 120.709 737.344 120.624H739.264C741.739 120.624 742.976 121.221 742.976 122.416C742.976 123.184 742.72 123.824 742.208 124.336C741.696 124.763 741.013 124.976 740.16 124.976C739.392 124.976 738.709 124.891 738.112 124.72C737.429 124.635 736.704 124.592 735.936 124.592C735.424 124.592 734.656 124.805 733.632 125.232C732.608 125.744 731.84 126 731.328 126ZM768.999 127.536C768.06 127.365 767.164 126.981 766.311 126.384C765.458 125.872 764.988 125.232 764.903 124.464L765.543 123.44C765.884 123.44 766.652 123.568 767.847 123.824C768.786 124.165 769.554 124.336 770.151 124.336C772.028 124.336 773.692 123.611 775.143 122.16C776.594 120.624 777.703 118.661 778.471 116.272C779.666 111.835 780.263 107.653 780.263 103.728C780.263 97.84 778.471 91.5253 774.887 84.784C772.668 80.8587 770.962 77.744 769.767 75.44C768.572 73.136 767.506 70.4907 766.567 67.504C765.458 64.0053 764.903 60.6347 764.903 57.392C764.903 54.32 765.671 50.6933 767.207 46.512C767.975 44.5493 769.042 42.9707 770.407 41.776C771.858 40.496 773.394 39.856 775.015 39.856C776.124 39.856 777.191 40.24 778.215 41.008C779.324 41.776 779.879 42.5867 779.879 43.44C779.879 44.1227 779.324 44.464 778.215 44.464C777.874 44.464 777.447 44.336 776.935 44.08C776.423 43.824 775.954 43.696 775.527 43.696C774.247 43.696 773.095 44.208 772.071 45.232C771.047 46.256 770.279 47.5787 769.767 49.2C768.743 52.3573 768.231 55.2587 768.231 57.904C768.231 59.5253 768.444 61.1893 768.871 62.896C768.956 63.408 769.042 63.8347 769.127 64.176C769.212 64.5173 769.255 64.7733 769.255 64.944L770.023 67.504L770.663 69.808L771.687 72.112C771.943 72.7093 772.199 73.264 772.455 73.776C772.796 74.2027 773.095 74.6293 773.351 75.056L774.887 77.744C775.228 78.256 775.954 79.4933 777.063 81.456C778.172 83.3333 779.196 85.3387 780.135 87.472C780.988 89.264 781.628 90.9707 782.055 92.592C782.482 94.128 782.866 96.0053 783.207 98.224C783.463 100.357 783.591 102.704 783.591 105.264C783.591 109.36 783.036 113.2 781.927 116.784C780.391 121.051 778.172 124.037 775.271 125.744C773.65 126.768 771.772 127.28 769.639 127.28L768.999 127.536ZM779.239 44.08C779.239 43.9947 779.196 43.952 779.111 43.952V44.08H779.239ZM813.939 127.408C813.256 127.408 812.659 127.152 812.147 126.64C811.72 126.128 811.507 125.488 811.507 124.72L811.379 120.752C811.379 117.68 811.635 113.157 812.147 107.184C812.574 100.528 812.787 96.048 812.787 93.744L812.659 87.984C812.574 86.2773 812.531 84.4 812.531 82.352C812.531 78.9387 812.659 73.8613 812.915 67.12C813.171 60.208 813.299 55.088 813.299 51.76L813.171 44.336L812.659 43.696V42.928C812.659 40.7093 813.555 39.6 815.347 39.6C816.712 39.6 818.931 40.1547 822.003 41.264C825.16 42.288 826.739 43.1413 826.739 43.824V44.208C828.275 46.6827 829.299 49.1573 829.811 51.632C830.408 54.1067 830.707 57.264 830.707 61.104C830.707 67.3333 830.024 72.4107 828.659 76.336H828.787C828.446 77.0187 827.763 78.128 826.739 79.664L824.947 82.352C826.483 83.5467 827.763 85.296 828.787 87.6C829.896 89.904 830.579 92.1227 830.835 94.256C830.92 95.024 831.006 95.9627 831.091 97.072C831.176 98.1813 831.262 99.504 831.347 101.04L831.475 104.368V106.16C831.475 114.352 828.915 120.411 823.795 124.336C821.15 126.384 817.864 127.408 813.939 127.408ZM817.907 79.792C823.539 79.792 826.355 74.1173 826.355 62.768C826.355 61.8293 826.27 59.9947 826.099 57.264L825.971 54.832L825.715 54.576C825.374 51.76 824.904 49.5413 824.307 47.92C823.88 46.7253 823.198 45.7867 822.259 45.104C821.32 44.336 820.296 43.952 819.187 43.952C817.31 43.952 816.371 49.5413 816.371 60.72C816.371 62.8533 816.414 64.304 816.499 65.072V67.632V71.984C816.414 73.3493 816.371 74.8853 816.371 76.592V78.128C816.371 78.128 816.456 78.384 816.627 78.896L816.883 79.792H817.907ZM815.987 122.416C818.035 122.416 819.912 121.733 821.619 120.368C823.411 119.003 824.819 117.253 825.843 115.12C826.867 112.901 827.379 110.725 827.379 108.592L827.507 108.08V107.056V105.648C827.507 102.064 827.208 98.6507 826.611 95.408C825.672 91.056 824.008 87.8987 821.619 85.936C820.254 84.8267 818.632 84.272 816.755 84.272C816.328 91.3547 816.115 97.1573 816.115 101.68V104.624C816.115 107.099 816.243 109.061 816.499 110.512C816.072 111.28 815.859 113.328 815.859 116.656V119.984L815.987 122.416ZM863.373 127.664C861.837 127.664 860.984 126.768 860.813 124.976V123.312C860.898 122.885 860.941 122.373 860.941 121.776L860.429 121.264C861.112 119.472 861.453 117.723 861.453 116.016C861.453 114.053 861.325 111.237 861.069 107.568L860.813 99.12C860.813 94.8533 860.941 88.4533 861.197 79.92C861.538 72.3253 861.709 65.8827 861.709 60.592L861.453 52.912C861.282 50.608 861.197 48.048 861.197 45.232C861.197 43.952 861.496 43.056 862.093 42.544C862.69 41.9467 863.629 41.648 864.909 41.648C865.762 41.648 866.445 41.904 866.957 42.416C867.128 42.5013 868.365 42.672 870.669 42.928C872.802 43.184 874.637 43.568 876.173 44.08C877.794 44.592 878.605 45.232 878.605 46C878.605 46.8533 877.794 47.7067 876.173 48.56C871.309 46.9387 867.853 46.128 865.805 46.128L865.165 46.896C865.25 47.664 865.293 49.4987 865.293 52.4C865.293 56.0693 865.208 59.3547 865.037 62.256C864.952 65.2427 864.909 68.5707 864.909 72.24C864.909 74.6293 865.506 75.824 866.701 75.824L868.749 75.696C869.432 75.6107 870.157 75.568 870.925 75.568C874.253 75.568 875.917 76.336 875.917 77.872C875.917 78.8107 875.704 79.6213 875.277 80.304C874.85 80.9013 874.21 81.2 873.357 81.2C872.077 81.2 871.096 80.8587 870.413 80.176L866.317 79.536H865.677L865.037 80.176V80.56C865.208 82.0107 865.293 85.3813 865.293 90.672C865.293 94 865.25 97.0293 865.165 99.76L865.037 108.848C865.037 112.176 865.165 115.589 865.421 119.088C865.506 121.051 865.933 122.373 866.701 123.056C867.469 123.653 868.877 123.952 870.925 123.952L873.229 123.824C873.997 123.739 874.85 123.696 875.789 123.696C878.264 123.696 879.501 124.251 879.501 125.36C879.501 126.896 877.624 127.664 873.869 127.664H863.373ZM908.923 127.664C907.387 127.664 906.534 126.768 906.363 124.976V123.312C906.448 122.885 906.491 122.373 906.491 121.776L905.979 121.264C906.662 119.472 907.003 117.723 907.003 116.016C907.003 114.053 906.875 111.237 906.619 107.568L906.363 99.12C906.363 94.8533 906.491 88.4533 906.747 79.92C907.088 72.3253 907.259 65.8827 907.259 60.592L907.003 52.912C906.832 50.608 906.747 48.048 906.747 45.232C906.747 43.952 907.046 43.056 907.643 42.544C908.24 41.9467 909.179 41.648 910.459 41.648C911.312 41.648 911.995 41.904 912.507 42.416C912.678 42.5013 913.915 42.672 916.219 42.928C918.352 43.184 920.187 43.568 921.723 44.08C923.344 44.592 924.155 45.232 924.155 46C924.155 46.8533 923.344 47.7067 921.723 48.56C916.859 46.9387 913.403 46.128 911.355 46.128L910.715 46.896C910.8 47.664 910.843 49.4987 910.843 52.4C910.843 56.0693 910.758 59.3547 910.587 62.256C910.502 65.2427 910.459 68.5707 910.459 72.24C910.459 74.6293 911.056 75.824 912.251 75.824L914.299 75.696C914.982 75.6107 915.707 75.568 916.475 75.568C919.803 75.568 921.467 76.336 921.467 77.872C921.467 78.8107 921.254 79.6213 920.827 80.304C920.4 80.9013 919.76 81.2 918.907 81.2C917.627 81.2 916.646 80.8587 915.963 80.176L911.867 79.536H911.227L910.587 80.176V80.56C910.758 82.0107 910.843 85.3813 910.843 90.672C910.843 94 910.8 97.0293 910.715 99.76L910.587 108.848C910.587 112.176 910.715 115.589 910.971 119.088C911.056 121.051 911.483 122.373 912.251 123.056C913.019 123.653 914.427 123.952 916.475 123.952L918.779 123.824C919.547 123.739 920.4 123.696 921.339 123.696C923.814 123.696 925.051 124.251 925.051 125.36C925.051 126.896 923.174 127.664 919.419 127.664H908.923Z" fill="#1D1D1D"/>
<path d="M1208.03 180.748C1263.16 165.437 1348.69 128.338 1249.74 102.43C1208.29 91.5772 1145.71 102.12 1074.45 154.203C1004.4 205.397 868.264 363.143 680.895 315.251C520.363 274.219 595.044 180.353 647.104 165.203C750.565 135.095 743.102 209.246 698.241 238.995C513.418 361.559 246.831 223.955 154.522 194.153C81.3766 170.455 29.6841 180.085 12.9811 187.861" stroke="black" stroke-width="5"/>
<g filter="url(#filter0_d)">
<path d="M1329.79 109.209C1341.75 145.858 1289.33 195.577 1212.71 220.258C1136.09 244.94 1064.29 235.238 1052.34 198.589C1040.39 161.939 1092.8 112.221 1169.42 87.5391C1246.04 62.8576 1317.84 72.5594 1329.79 109.209Z" fill="#E0DEE1"/>
</g>
<path d="M1311.82 113.601C1300.82 91.3252 1258.95 104.176 1239.39 113.386C1211.7 126.424 1203.45 155.446 1291.96 147.298C1380.48 139.151 1366.52 92.584 1345.5 78.2854C1311.99 55.497 1250.75 59.1652 1228.34 65.7621C1205.94 72.359 1201.31 77.856 1201.31 77.856" stroke="black" stroke-width="5"/>
<defs>
<filter id="filter0_d" x="1024.64" y="41.8857" width="352.848" height="232.026" filterUnits="userSpaceOnUse" color-interpolation-filters="sRGB">
<feFlood flood-opacity="0" result="BackgroundImageFix"/>
<feColorMatrix in="SourceAlpha" type="matrix" values="0 0 0 0 0 0 0 0 0 0 0 0 0 0 0 0 0 0 127 0"/>
<feOffset dx="10" dy="4"/>
<feGaussianBlur stdDeviation="18"/>
<feColorMatrix type="matrix" values="0 0 0 0 0 0 0 0 0 0 0 0 0 0 0 0 0 0 0.05 0"/>
<feBlend mode="normal" in2="BackgroundImageFix" result="effect1_dropShadow"/>
<feBlend mode="normal" in="SourceGraphic" in2="effect1_dropShadow" result="shape"/>
</filter>
</defs>
</svg>
